<?xml version="1.0" standalone="no"?>
<!DOCTYPE svg PUBLIC "-//W3C//DTD SVG 20010904//EN"
 "http://www.w3.org/TR/2001/REC-SVG-20010904/DTD/svg10.dtd">
<svg version="1.0" xmlns="http://www.w3.org/2000/svg"
 width="421.000000pt" height="421.000000pt" viewBox="0 0 421.000000 421.000000"
 preserveAspectRatio="xMidYMid meet">
<metadata>
Created by potrace 1.14, written by Peter Selinger 2001-2017
</metadata>
<g transform="translate(0.000000,421.000000) scale(0.100000,-0.100000)"
fill="#000000" stroke="none">
<path d="M2127 3576 c-302 -54 -499 -188 -620 -423 l-47 -90 143 -5 c96 -3
144 -1 149 6 5 7 8 7 8 1 1 -5 8 6 16 25 8 19 12 46 9 60 -4 18 -3 21 4 11 7
-12 13 -7 24 20 8 21 10 36 4 40 -6 4 -5 14 3 25 11 18 11 18 6 -1 -6 -19 -5
-19 8 -2 8 10 13 31 11 45 -2 15 -2 21 1 15 9 -20 21 -15 27 9 4 12 1 26 -6
31 -8 6 -6 7 6 3 11 -3 22 2 30 15 13 22 78 69 99 73 7 1 24 9 38 18 14 9 57
26 95 38 39 12 77 24 85 27 8 4 19 5 24 4 4 -1 19 6 33 14 14 9 27 14 31 11 3
-3 -1 -6 -8 -6 -7 0 -10 -3 -7 -7 4 -3 1 -13 -6 -22 -6 -8 1 -6 17 7 22 17 32
19 48 11 11 -6 22 -8 25 -5 3 2 16 1 29 -4 17 -7 24 -6 24 3 0 8 3 8 9 -2 5
-8 16 -11 24 -8 9 3 17 2 19 -3 2 -5 12 -11 23 -13 11 -2 34 -10 50 -18 17 -8
40 -14 52 -14 12 1 21 -2 20 -8 -1 -5 6 -11 15 -12 25 -4 142 -71 158 -90 7
-8 16 -12 21 -9 5 3 8 2 7 -3 -4 -13 49 -73 57 -65 5 4 5 2 2 -5 -10 -16 3
-44 16 -36 6 4 8 0 4 -10 -4 -11 -1 -17 9 -17 9 0 12 -5 8 -12 -4 -6 -7 -32
-5 -56 1 -28 -2 -42 -8 -37 -12 7 -15 -8 -4 -19 11 -10 12 -37 2 -30 -5 3 -6
10 -3 16 4 7 2 8 -5 4 -6 -4 -9 -16 -6 -27 4 -11 2 -19 -5 -19 -7 0 -10 -7 -6
-15 3 -8 1 -15 -4 -15 -5 0 -7 -7 -4 -15 4 -8 1 -15 -6 -15 -7 0 -10 -8 -7
-20 3 -11 1 -20 -5 -20 -5 0 -6 -10 -3 -21 5 -16 4 -19 -5 -14 -9 5 -10 1 -5
-15 5 -17 4 -21 -6 -15 -9 6 -11 2 -7 -13 4 -12 3 -20 -2 -17 -4 3 -10 -4 -13
-15 -3 -10 0 -21 7 -24 7 -3 7 -5 -2 -5 -7 -1 -10 -6 -7 -11 3 -6 -1 -17 -9
-26 -17 -17 -22 -49 -6 -39 6 3 7 -1 4 -9 -3 -9 -10 -14 -14 -11 -4 3 -11 -2
-14 -11 -3 -8 -2 -12 4 -9 15 9 12 -2 -6 -20 -12 -12 -19 -13 -30 -4 -11 9
-14 9 -14 0 0 -6 -39 15 -87 47 -128 86 -181 114 -194 106 -8 -4 -9 -3 -5 4 6
10 -100 73 -121 72 -4 -1 18 -15 51 -31 32 -17 56 -33 53 -35 -3 -3 -36 10
-73 29 -100 51 -301 121 -444 156 -285 69 -568 66 -736 -8 -103 -46 -171 -145
-144 -211 18 -43 100 -114 188 -162 40 -23 76 -48 79 -57 2 -9 11 -32 18 -51
8 -19 16 -70 18 -113 4 -69 2 -80 -18 -101 -24 -26 -44 -116 -26 -116 15 0 14
-39 -4 -91 -15 -47 -34 -332 -27 -410 4 -43 5 -45 32 -41 27 4 28 5 18 40 -9
33 -5 258 5 302 5 19 17 79 22 105 2 11 4 40 4 63 1 39 4 45 31 55 17 7 30 19
30 28 0 19 46 79 60 79 5 0 4 -13 -1 -29 -7 -20 -7 -42 1 -70 10 -36 18 -45
70 -71 35 -18 61 -26 65 -20 3 6 1 10 -4 10 -22 0 -10 18 19 30 31 13 47 11
42 -5 -9 -27 39 33 50 61 7 19 15 34 18 34 9 0 80 -111 80 -126 0 -8 4 -14 9
-14 14 0 31 58 25 88 -7 37 25 52 107 52 108 0 224 -79 231 -157 l3 -38 24 39
25 39 15 -44 c20 -57 30 -71 63 -92 33 -20 78 -23 78 -4 0 15 77 54 87 44 3
-4 0 -14 -8 -24 -11 -14 -9 -13 13 2 28 21 58 80 58 115 0 11 4 20 9 20 17 0
109 -79 116 -100 8 -26 22 -26 30 0 5 16 13 19 38 15 18 -2 70 -7 117 -10 94
-6 113 -15 79 -39 -13 -9 -18 -16 -11 -16 7 0 11 -4 8 -9 -4 -5 -18 -78 -32
-163 -14 -84 -29 -155 -35 -156 -5 -2 -7 -8 -4 -13 13 -20 -99 -202 -165 -266
-24 -23 -75 -59 -114 -79 -84 -44 -189 -106 -304 -182 -153 -99 -209 -115
-327 -94 l-40 8 90 32 c175 64 324 124 334 136 5 6 12 25 15 41 6 28 6 29 -4
5 -6 -13 -16 -28 -23 -32 -12 -7 -196 -69 -427 -143 -199 -63 -214 -94 -47
-98 36 -1 69 -6 73 -10 16 -16 9 -86 -12 -113 -11 -15 -47 -44 -79 -63 -73
-45 -87 -72 -25 -48 8 3 32 8 54 12 l39 6 -5 -54 c-6 -74 -28 -104 -98 -135
-56 -24 -76 -43 -65 -62 6 -9 102 16 121 31 16 13 44 -16 44 -44 0 -40 -50
-96 -114 -127 -57 -28 -70 -30 -221 -36 -182 -7 -257 2 -345 42 -93 42 -137
101 -190 259 -20 58 -28 102 -29 164 -3 117 -11 116 -11 -1 0 -164 59 -328
148 -409 100 -93 211 -113 468 -86 157 17 196 31 264 95 33 32 40 46 40 76 0
20 -6 49 -14 64 -13 26 -12 31 15 72 36 53 40 124 10 161 l-20 24 37 38 c31
32 37 45 37 82 l0 43 77 0 c125 0 324 66 538 179 129 68 179 104 315 234 101
96 108 101 138 94 72 -18 105 -5 157 59 19 24 13 21 -23 -11 -57 -52 -94 -59
-130 -24 -17 17 -17 21 12 94 60 150 158 277 214 277 8 0 22 9 32 20 17 19 17
22 2 37 -15 15 -19 15 -60 -1 -41 -15 -118 -86 -130 -118 -2 -7 -8 -1 -12 14
-14 54 26 159 63 164 4 0 24 8 44 17 21 10 45 17 55 17 27 1 61 34 80 77 13
31 17 91 20 338 5 274 3 308 -15 399 -50 236 -220 457 -464 598 -90 53 -168
84 -303 123 -113 33 -316 42 -438 21z m-364 -481 c-3 -9 -8 -14 -10 -11 -3 3
-2 9 2 15 9 16 15 13 8 -4z m-183 -779 c0 -20 -25 -37 -44 -30 -9 3 -16 15
-16 25 0 14 7 19 30 19 19 0 30 -5 30 -14z m790 -130 c0 -20 -25 -37 -44 -30
-9 3 -16 12 -16 19 0 12 9 16 53 24 4 0 7 -5 7 -13z"/>
<path d="M1778 3043 c6 -2 18 -2 25 0 6 3 1 5 -13 5 -14 0 -19 -2 -12 -5z"/>
<path d="M1838 3033 c7 -3 16 -2 19 1 4 3 -2 6 -13 5 -11 0 -14 -3 -6 -6z"/>
<path d="M1888 3023 c7 -3 16 -2 19 1 4 3 -2 6 -13 5 -11 0 -14 -3 -6 -6z"/>
<path d="M1928 3013 c7 -3 16 -2 19 1 4 3 -2 6 -13 5 -11 0 -14 -3 -6 -6z"/>
<path d="M2267 2899 c7 -7 15 -10 18 -7 3 3 -2 9 -12 12 -14 6 -15 5 -6 -5z"/>
<path d="M3311 1884 c0 -11 3 -14 6 -6 3 7 2 16 -1 19 -3 4 -6 -2 -5 -13z"/>
<path d="M1736 1795 c-3 -9 1 -32 9 -51 18 -44 85 -77 147 -72 35 2 46 9 65
37 21 31 31 81 17 81 -3 0 -19 -11 -36 -25 -48 -40 -144 -27 -180 24 -13 19
-16 20 -22 6z"/>
<path d="M1630 1541 c8 -6 33 -13 55 -16 137 -21 363 -69 388 -81 45 -24 53
-11 9 14 -71 40 -276 89 -377 91 -61 1 -85 -2 -75 -8z"/>
<path d="M1232 1515 c0 -16 2 -22 5 -12 2 9 2 23 0 30 -3 6 -5 -1 -5 -18z"/>
<path d="M1446 1505 c3 -22 -2 -69 -10 -105 -9 -36 -16 -82 -16 -103 0 -44 16
-81 31 -71 6 3 13 -3 16 -14 6 -24 44 -43 72 -35 20 5 20 6 3 32 -10 14 -34
58 -54 96 -26 52 -33 76 -27 95 11 40 9 82 -6 115 l-14 30 5 -40z"/>
<path d="M1243 1440 c0 -25 2 -35 4 -22 2 12 2 32 0 45 -2 12 -4 2 -4 -23z"/>
</g>
</svg>
